<svg xmlns="http://www.w3.org/2000/svg" width="67" height="69" viewBox="0 0 230 238" xmlns:xlink="http://www.w3.org/1999/xlink">
                        <g>
                            <g>
                                <g>
                                    <path d="M229.721 75.983l-3.17-.955a.567.567 0 0 1-.213-.234l-.868-3.487a.513.513 0 0 0-.94 0l-.868 3.487a.567.567 0 0 1-.213.234l-3.17.955c-.372.223-.372.81 0 1.034l3.17.955c.09.054.164.135.213.234l.868 3.487a.513.513 0 0 0 .94 0l.868-3.487a.563.563 0 0 1 .213-.234l3.17-.955c.372-.223.372-.81 0-1.034"></path>
                                </g>
                                <g>
                                    <path d="M196.666 22.436l-3.753-1.094a.645.645 0 0 1-.255-.256l-1.094-3.752a.643.643 0 0 0-1.128 0l-1.093 3.752a.643.643 0 0 1-.256.256l-3.753 1.094a.643.643 0 0 0 0 1.128l3.753 1.094a.642.642 0 0 1 .256.255l1.093 3.753a.643.643 0 0 0 1.128 0l1.094-3.753a.644.644 0 0 1 .255-.255l3.753-1.094a.643.643 0 0 0 0-1.128"></path>
                                </g>
                                <g>
                                    <path d="M11.666 82.436l-3.753-1.094a.642.642 0 0 1-.255-.255l-1.094-3.753a.643.643 0 0 0-1.128 0l-1.094 3.753a.644.644 0 0 1-.255.255L.334 82.436a.643.643 0 0 0 0 1.128l3.753 1.094c.108.06.196.147.255.256l1.094 3.752a.643.643 0 0 0 1.128 0l1.094-3.752a.643.643 0 0 1 .255-.256l3.753-1.094a.643.643 0 0 0 0-1.128"></path>
                                </g>
                                <g>
                                    <path d="M55.335 6.564l3.752 1.094a.645.645 0 0 1 .255.256l1.094 3.752a.643.643 0 0 0 1.128 0l1.093-3.752a.645.645 0 0 1 .256-.256l3.753-1.094a.643.643 0 0 0 0-1.128l-3.753-1.094a.647.647 0 0 1-.256-.255L61.564.334a.643.643 0 0 0-1.128 0l-1.094 3.753a.647.647 0 0 1-.255.255l-3.752 1.094a.642.642 0 0 0 0 1.128"></path>
                                </g>
                                <g>
                                    <path d="M209.666 128.436l-3.752-1.094a.64.64 0 0 1-.256-.255l-1.094-3.753a.643.643 0 0 0-1.128 0l-1.094 3.753a.64.64 0 0 1-.256.255l-3.752 1.094a.643.643 0 0 0 0 1.128l3.752 1.094a.638.638 0 0 1 .256.255l1.094 3.752a.642.642 0 0 0 1.128 0l1.094-3.752a.638.638 0 0 1 .256-.255l3.752-1.094a.643.643 0 0 0 0-1.128"></path>
                                </g>
                                <g>
                                    <path d="M176.36 53.09c5.3 8.98 8.659 19.059 10.041 29.372 1.278 10.332.509 20.905-2.287 30.903-2.783 9.994-7.543 19.436-13.97 27.55a79.728 79.728 0 0 1-5.635 6.38l3.905 9.653a2.252 2.252 0 0 1-.112 2.588c-20.572 26.914-87.099 38.049-130.072-.463a2.247 2.247 0 0 1-.397-2.915l9.737-13.068a76.992 76.992 0 0 1-7.99-11.247c-5.15-8.806-8.51-18.644-9.88-28.76a79.072 79.072 0 0 1-.558-15.273 77.05 77.05 0 0 1 2.387-15.112A78.173 78.173 0 0 1 44.88 45.235 79.098 79.098 0 0 1 67.808 24.86c8.888-5.225 18.843-8.665 29.095-10.098 10.246-1.426 20.802-.858 30.856 1.748a79.859 79.859 0 0 1 27.917 13.444A79.465 79.465 0 0 1 176.36 53.09zM81.295 169.485c-18.78-4.959-28.803-16.514-28.902-16.625a1.55 1.55 0 0 0-2.182-.186 1.549 1.549 0 0 0-.18 2.18c.428.501 10.699 12.396 30.471 17.62.192.05.385.062.577.038a1.545 1.545 0 0 0 1.32-1.137 1.546 1.546 0 0 0-1.104-1.89zm11.375 3.6a2.58 2.58 0 0 0-3.242-2.63 2.576 2.576 0 0 0-1.915 2.334 2.582 2.582 0 0 0 5.157.296zm7.165-.815a2.2 2.2 0 0 0-1.543 1.884 2.205 2.205 0 0 0 2.839 2.304 2.201 2.201 0 0 0 1.543-1.89 2.197 2.197 0 0 0-2.839-2.298zm12.182 2.508a1.866 1.866 0 0 0-2.398-1.958 1.865 1.865 0 0 0-1.305 1.6 1.863 1.863 0 0 0 2.4 1.957 1.857 1.857 0 0 0 1.303-1.6zm70.96-91.865c-.514-4.953-1.475-9.887-2.987-14.667-1.569-4.756-3.522-9.413-6.118-13.717-.627-1.093-1.327-2.13-1.99-3.2-.682-1.05-1.426-2.062-2.152-3.087-.75-1.007-1.562-1.964-2.342-2.946-.8-.963-1.655-1.883-2.48-2.822-3.39-3.693-7.19-6.991-11.257-9.881a76.22 76.22 0 0 0-12.925-7.405c-4.518-2.032-9.223-3.638-14.04-4.675-9.614-2.106-19.563-2.316-29.091-.562-9.534 1.76-18.59 5.367-26.525 10.53-7.953 5.144-14.746 11.845-20.04 19.447a70.253 70.253 0 0 0-6.714 12.068c-1.81 4.212-3.297 8.534-4.289 12.969a68.868 68.868 0 0 0-1.667 13.432c-.137 4.502.105 9.004.812 13.445a69.142 69.142 0 0 0 3.384 12.962c1.532 4.182 3.41 8.233 5.697 12.043 2.293 3.805 4.89 7.436 7.854 10.752 2.969 3.31 6.217 6.374 9.738 9.097 14.096 10.925 32.259 16.52 50.551 15.094 4.562-.413 9.13-1.111 13.594-2.335 4.463-1.198 8.827-2.871 13.036-4.916 8.412-4.118 16.105-9.98 22.453-17.193 6.378-7.2 11.238-15.834 14.306-25.141 3.037-9.326 4.066-19.355 3.193-29.292z"></path>
                                </g>
                                <g>
                                    <path d="M155.585 92.987c-1.054.176-2.176-1.467-2.496-3.671-.326-2.204.271-4.128 1.325-4.304 1.054-.17 2.176 1.474 2.496 3.671.327 2.204-.265 4.128-1.325 4.304zm-.924-3.971c.105.737.58 1.271 1.054 1.194.48-.08.776-.738.672-1.475-.112-.737-.586-1.265-1.06-1.186-.482.078-.777.736-.666 1.467z"></path>
                                </g>
                                <g>
                                    <path d="M111.997 107c-3.314 0-5.997-2.913-5.997-6.503 0-3.59 2.683-6.497 5.997-6.497 3.313 0 6.003 2.906 6.003 6.497 0 3.59-2.69 6.503-6.003 6.503zm-.102-6.214c.366 1.485 1.71 2.377 3.001 1.995 1.29-.388 2.036-1.902 1.669-3.386-.366-1.484-1.711-2.377-3.001-1.995-1.29.387-2.035 1.902-1.67 3.386z"></path>
                                </g>
                                <g>
                                    <path d="M131.809 61c-.577-6.846-10.226-11.582-10.697-18.483-.658-9.689 8.08-9.391 10.076-7.976.333.254 1.198-.031.615-.614-3.37-3.377-19.699-5.648-18.764 23.33 9.146-2.172 18.77 3.743 18.77 3.743"></path>
                                </g>
                                <g>
                                    <path d="M76.775 112.615c-.913-2.788-1.734-6.227-3.974-8.172-5.109-4.45-15.58-12.393-16.684-34.546-1.463-29.247 11.119-28.49 20.19-22.71 6.213 3.966 11.92 11.867 15.672 21.323.488.948 3.011-.837 4.258-2.052 2.042-2.392 6.472-4.79 6.472-4.79 1.506-.427 3.944 1.315 7.319 4.623 3.8 3.718 4.77 5.298 9.54 5.986 4.769.681 9.705 1.363 10.557 6.667.623 3.873 1.19 7.975.672 11.897a9.349 9.349 0 0 1-.746 2.602c-1.012 2.275-2.764 4.128-4.165 6.271-2.851 4.363-3.672 9.89-6.88 13.992-3.413 4.368-9.12 6.723-14.143 8.662-5.634 2.181-11.792 1.742-17.598 1.146-3.468-.352-6.152-2.595-8.756-4.758-1.19-.985-1.24-4.635-1.734-6.14zm25.163-10.323c.259 4.024 2.216 4.11 4.517 5.561 2.295 1.457 5.195 1.885 8.176 1.457 2.98-.428 4.764-3.683 6.466-5.307 1.704-1.625 1.364-5.561 1.278-5.902-.08-.342-.426-3.25-3.999-5.307-3.579-2.053-7.923-.255-11.835 2.04-3.918 2.293-4.603 7.458-4.603 7.458zm-26.514-1.617c1.975 1.01 7.096 0 8.04-6.686.975-6.903 5.621-15.9 5.621-15.9 2.074-10.205-8.546-23.255-13.353-26.78-10.638-7.802-17.246-1.388-15.58 19.053 1.852 22.772 12.502 28.9 15.272 30.313z"></path>
                                </g>
                                <g>
                                    <path d="M146.566 88.49c-4.386-3.278-5.792-8.288-5.537-11.265.261-2.976 0-10.225 0-10.225 6.184 3.108 9.48 6.292 14.041 12.683 4.505 6.33 2.75 14.003 1.674 16.317-1.599 0-6.085-4.46-10.178-7.51zm6.128 2.069c1.232 3.033 3.353 3.84 3.994 2.333 1.257-2.977.068-13.64-4.175-11.026-1.107.682-1.057 5.628.181 8.693z"></path>
                                </g>
                                <g>
                                    <path d="M156.089 121.484c-.765-7.405-6.129-7.016-6.129-7.794 0-.785-1.54-8.272-1.54-8.272s2.027-1.28 2.817-2.642c.073-.126.141-.25.21-.377-.66-.15-1.191-.32-1.474-.797-.377-.64.666-1.167 1.004-.96.506.308.432.922.722 1.236 1.708-3.828-.685-6.131-3.594-6.74-.969-.2-3.873-.439-6.382 1.312-3.089 2.165-2.688 5.328-1.492 6.972.388.534 1.024.942 1.751 1.256.512.087 1.634.194 1.862-.528.191-.577-.03-1.293.524-1.901.358-.383 1.782-.12 1.61.84-.167.904-1.505 1.859-2.621 2.047 1.985.52 4.07.558 4.07.558 2.04 7.537 1.257 8.51 1.257 8.51l-1.147 3.898c-1.147 3.897-2.934 7.28-4.846 10.392-1.917 3.12-4.47 4.94-7.787 6.37-3.317 1.425-8.299.647-10.974.647-2.677 0-1.789 1.43-1.789 1.43s2.041.132 9.187 0c7.146-.131 10.592-5.585 11.87-6.627 1.275-1.035 4.47-8.704 5.221-10.518.746-1.82 1.8-3.12 3.97-1.952 2.17 1.168 2.676 7.148 3.065 9.094.382 1.952 2.546 1.431 2.546 1.431v-.91s-1.146 1.43-1.911-5.975"></path>
                                </g>
                                <g>
                                    <path d="M73.173 129c-3.606 2.243-3.637 5.655-5.173 8.164 15.388 17.086 44.622 20.707 63 15.859v-3.45c-19.217 3.107-55.831-4.41-57.827-20.573"></path>
                                </g>
                                <g>
                                    <path d="M160.678 46.529a1.496 1.496 0 0 0-2.161-.127c-.636.577-.692 1.578-.129 2.236 6.239 7.246 10.947 15.975 13.616 25.228A1.537 1.537 0 0 0 173.467 75c.147 0 .294-.025.441-.07.809-.247 1.268-1.134 1.029-1.97-2.798-9.697-7.726-18.837-14.259-26.431"></path>
                                </g>
                                <g>
                                    <path d="M161.912 60.61c-.538-.675-1.556-.81-2.269-.304-.713.504-.855 1.459-.317 2.128 3.156 3.939 5.393 8.56 6.468 13.356.162.717.836 1.21 1.582 1.21.116 0 .227-.012.337-.037.875-.17 1.439-.978 1.25-1.799-1.172-5.228-3.609-10.262-7.05-14.554"></path>
                                </g>
                                <g>
                                    <path d="M182 159.177h2.31V166h1.359v-6.823H188V158h-6v1.177"></path>
                                </g>
                                <g>
                                    <path d="M196.12 158l-2.12 6.202-2.047-6.202H190v8h1.243v-4.771l-.063-1.431h.083l2.1 6.202h1.086l2.204-6.18h.083l-.062 1.52V166H198v-8h-1.88"></path>
                                </g>
                                <g>
                                    <path d="M32.437 233.428a159.749 159.749 0 0 0-.308-3.622c-.862-.052-1.694-.103-2.497-.155a38 38 0 0 0-2.438-.077h-.382a247.02 247.02 0 0 0-.47 7.22L19 236.691a512.317 512.317 0 0 0 3.29-18.294A377.437 377.437 0 0 0 24.786 200l8.84.129a363.247 363.247 0 0 0 2.687 18.23A339.543 339.543 0 0 0 40 236.589l-7.285.411a410.62 410.62 0 0 1-.278-3.572zm-3.153-26.953a831.392 831.392 0 0 0-1.118 9.43 473.245 473.245 0 0 0-.972 9.481c.412.034.834.052 1.266.052h3.238a361.621 361.621 0 0 0-1.119-9.482 928.82 928.82 0 0 0-1.295-9.48z"></path>
                                </g>
                                <g>
                                    <path d="M56 228.667c0 1.59-.28 2.916-.841 3.98-.561 1.062-1.265 1.915-2.11 2.558a8.1 8.1 0 0 1-2.78 1.38c-1.008.277-1.958.415-2.852.415-.665-.018-1.31-.09-1.938-.214a11.737 11.737 0 0 1-1.754-.496 5.224 5.224 0 0 1-1.668-.978l.228-6.109c.684.519 1.378.92 2.082 1.205.703.287 1.35.501 1.938.644.685.16 1.35.26 1.996.295a2.97 2.97 0 0 0 1.241-1.14c.294-.49.441-1.04.441-1.647 0-.518-.128-1.067-.384-1.648-.257-.58-.651-1.13-1.183-1.648-.533-.5-1.165-1.102-1.897-1.808a20.372 20.372 0 0 1-2.11-2.398 14.081 14.081 0 0 1-1.71-2.974c-.466-1.09-.699-2.278-.699-3.564 0-1.268.186-2.425.556-3.47.37-1.045.893-1.942 1.569-2.693a6.983 6.983 0 0 1 2.423-1.74c.94-.412 1.972-.617 3.094-.617.912 0 1.9.13 2.965.388 1.064.259 2.196.666 3.393 1.22l-.456 6.243a7.353 7.353 0 0 0-1.569-1.005c-.55-.26-1.064-.46-1.539-.603a9.005 9.005 0 0 0-1.625-.322c-.723.126-1.34.478-1.853 1.058-.514.582-.77 1.327-.77 2.238 0 .857.185 1.603.555 2.237a8.94 8.94 0 0 0 1.398 1.795c.56.563 1.173 1.126 1.839 1.688a14.417 14.417 0 0 1 1.868 1.916 10.826 10.826 0 0 1 1.482 2.465c.409.929.631 2.045.67 3.35"></path>
                                </g>
                                <g>
                                    <path d="M69.399 202a186.32 186.32 0 0 0-.397 4.065c-.113 1.317-.217 2.63-.312 3.936.719-.034 1.432-.064 2.14-.09.71-.026 1.433-.073 2.17-.142l-.199 5.24a46 46 0 0 0-2.197-.052h-2.197c-.152 2.478-.26 4.9-.326 7.266-.067 2.366-.1 4.754-.1 7.163 0 1.239.014 2.482.043 3.73.028 1.247.06 2.507.1 3.781l-6.24.103c.133-3.7.246-7.36.341-10.983.094-3.622.141-7.274.141-10.957-.718.035-1.446.065-2.183.09-.737.027-1.465.065-2.183.117l.226-5.653c.662.087 1.343.155 2.042.207.7.051 1.38.094 2.042.129a188.743 188.743 0 0 0-.17-7.899l7.259-.051"></path>
                                </g>
                                <g>
                                    <path d="M93.783 220.31c-.662.088-1.353.194-2.077.317a41.39 41.39 0 0 0-2.107.423c-.786.176-1.57.378-2.357.607a19.6 19.6 0 0 0 .42-2.311c.072-.66.107-1.263.107-1.809 0-.95-.098-1.694-.294-2.23-.196-.538-.418-.939-.666-1.203-.248-.264-.49-.422-.728-.475a2.775 2.775 0 0 0-.48-.08c-.662 0-1.2.234-1.613.7-.413.467-.733 1.084-.96 1.85-.228.765-.383 1.64-.465 2.626a36.355 36.355 0 0 0-.124 3.037 77.754 77.754 0 0 0 .124 4.437l.433 10.379-7.159.422c0-4.242-.047-8.068-.14-11.474a584.356 584.356 0 0 0-.294-8.728 356.957 356.957 0 0 0-.403-7.526l6.106-.344.31 2.984c.537-1.126 1.173-2.02 1.906-2.68.734-.66 1.467-1.153 2.2-1.479.734-.326 1.405-.532 2.016-.62.609-.088 1.07-.133 1.379-.133 1.054 0 1.91.286 2.573.859.66.572 1.177 1.307 1.549 2.205.372.897.625 1.884.76 2.957.133 1.074.201 2.113.201 3.117 0 .792-.026 1.544-.078 2.258l-.14 1.914"></path>
                                </g>
                                <g>
                                    <path d="M112.675 227.596c-.217 1.628-.526 3.039-.93 4.233-.403 1.195-.885 2.186-1.446 2.972-.56.788-1.18 1.42-1.858 1.898a6.509 6.509 0 0 1-2.199 1.009c-.786.194-1.593.292-2.42.292-.826 0-1.618-.08-2.375-.239a6.125 6.125 0 0 1-2.11-.876c-.65-.425-1.244-1-1.785-1.725-.541-.725-1-1.654-1.372-2.787-.373-1.132-.664-2.485-.87-4.06-.207-1.576-.31-3.424-.31-5.548 0-3.185.26-5.794.781-7.83.521-2.033 1.206-3.64 2.051-4.816.846-1.177 1.81-1.991 2.892-2.442a8.585 8.585 0 0 1 3.335-.677c.727 0 1.46.067 2.198.2a6.286 6.286 0 0 1 2.095.783c.66.389 1.273.928 1.844 1.618.57.69 1.063 1.589 1.476 2.694.413 1.106.737 2.446.974 4.021.236 1.575.354 3.441.354 5.6s-.11 4.052-.325 5.68zm-6.02-5.468c0-1.698-.069-3.091-.206-4.18-.138-1.088-.325-1.95-.56-2.587-.237-.638-.522-1.075-.856-1.315a1.843 1.843 0 0 0-1.092-.357c-.453 0-.846.172-1.18.517-.335.345-.616.898-.842 1.659-.226.761-.398 1.738-.516 2.933-.118 1.194-.177 2.65-.177 4.365 0 1.735.074 3.172.221 4.314.148 1.14.354 2.052.62 2.733.265.681.58 1.163.945 1.447.363.282.752.425 1.165.425.865 0 1.495-.806 1.889-2.416.393-1.61.59-4.123.59-7.538z"></path>
                                </g>
                                <g>
                                    <path d="M144.333 215.48a12.743 12.743 0 0 1-2.046 3.942c-.92 1.206-2.081 2.27-3.485 3.192-1.404.922-3.064 1.625-4.981 2.107.039 2.086.093 4.149.163 6.19.069 2.043.152 4.072.252 6.089H127c.316-3.912.548-7.824.697-11.736.149-3.912.223-7.85.223-11.813 0-2.292-.02-4.58-.06-6.863-.04-2.283-.118-4.59-.237-6.915a18.213 18.213 0 0 1 3.188-.543 35.246 35.246 0 0 1 2.742-.13c.535 0 1.191.052 1.972.156.781.102 1.592.306 2.432.607.84.302 1.68.724 2.52 1.266.84.544 1.597 1.267 2.269 2.172.672.905 1.215 2.003 1.63 3.296.416 1.292.624 2.835.624 4.627 0 1.482-.223 2.934-.667 4.355zm-10.512 4.856a6.084 6.084 0 0 0 1.704-.827 7.21 7.21 0 0 0 1.276-1.151 6.82 6.82 0 0 0 .919-1.358c.246-.482.45-.957.607-1.422.375-1.087.594-2.268.653-3.544l-.015-.595c-.01-.379-.059-.858-.148-1.436a16.152 16.152 0 0 0-.43-1.914 9.798 9.798 0 0 0-.816-2.005 6.761 6.761 0 0 0-1.334-1.719c-.544-.508-1.211-.866-2-1.073-.16 2.672-.268 5.35-.328 8.03a365.74 365.74 0 0 0-.088 8.11z"></path>
                                </g>
                                <g>
                                    <path d="M158.88 237.735c-1.54.177-2.803.265-3.79.265-1.228 0-2.306-.212-3.231-.637a7.711 7.711 0 0 1-2.4-1.7 9.348 9.348 0 0 1-1.677-2.46 15.995 15.995 0 0 1-1.058-2.935 21.85 21.85 0 0 1-.558-3.122 28.738 28.738 0 0 1-.166-2.99c0-2.338.211-4.495.634-6.47.423-1.975 1.037-3.68 1.843-5.115.805-1.436 1.8-2.556 2.99-3.362 1.187-.806 2.536-1.209 4.046-1.209 1.249 0 2.386.275 3.413.823 1.027.55 1.903 1.391 2.627 2.526.725 1.133 1.285 2.572 1.677 4.317.392 1.745.589 3.813.589 6.205 0 .673-.015 1.355-.045 2.046-.031.691-.086 1.408-.167 2.152l-10.69 1.25c.08.655.205 1.275.377 1.86.17.583.402 1.102.694 1.554.292.452.639.81 1.042 1.076s.896.399 1.48.399c1.087 0 2.174-.058 3.262-.173a123.69 123.69 0 0 0 3.412-.412l.816 4.996c-1.872.566-3.579.938-5.12 1.116zm-6.145-14.944l5.013-.823v-1.008c0-1.504-.13-2.668-.392-3.49-.262-.823-.544-1.429-.846-1.818-.363-.46-.776-.725-1.238-.796-.585.053-1.047.292-1.39.717-.342.424-.598.968-.77 1.632a11.153 11.153 0 0 0-.316 2.242 51.72 51.72 0 0 0-.061 2.521z"></path>
                                </g>
                                <g>
                                    <path d="M176.399 202a182.964 182.964 0 0 0-.397 4.065c-.113 1.317-.217 2.63-.312 3.936.719-.034 1.432-.064 2.14-.09a38.309 38.309 0 0 0 2.17-.142l-.199 5.24a46.017 46.017 0 0 0-2.197-.052h-2.197c-.152 2.478-.26 4.9-.327 7.266a253.85 253.85 0 0 0-.098 7.163c0 1.239.013 2.482.042 3.73.028 1.247.06 2.507.099 3.781l-6.239.103c.132-3.7.246-7.36.34-10.983.095-3.622.142-7.274.142-10.957-.718.035-1.446.065-2.183.09-.737.027-1.465.065-2.183.117l.226-5.653c.662.087 1.342.155 2.042.207.7.051 1.38.094 2.042.129 0-1.342-.014-2.659-.043-3.95-.028-1.29-.07-2.606-.127-3.949l7.259-.051"></path>
                                </g>
                                <g>
                                    <path d="M197 228.667c0 1.59-.28 2.916-.84 3.98-.562 1.062-1.265 1.915-2.111 2.558a8.095 8.095 0 0 1-2.78 1.38c-1.008.277-1.958.415-2.851.415a11.502 11.502 0 0 1-1.939-.214 11.756 11.756 0 0 1-1.754-.496 5.236 5.236 0 0 1-1.668-.978l.229-6.109c.683.519 1.377.92 2.081 1.205.703.287 1.35.501 1.939.644.684.16 1.35.26 1.995.295a2.967 2.967 0 0 0 1.241-1.14c.294-.49.442-1.04.442-1.647 0-.518-.128-1.067-.385-1.648-.257-.58-.651-1.13-1.183-1.648-.532-.5-1.165-1.102-1.897-1.808a20.422 20.422 0 0 1-2.11-2.398 14.08 14.08 0 0 1-1.71-2.974c-.466-1.09-.699-2.278-.699-3.564 0-1.268.186-2.425.556-3.47.37-1.045.893-1.942 1.57-2.693a6.976 6.976 0 0 1 2.422-1.74c.941-.412 1.972-.617 3.094-.617.913 0 1.9.13 2.965.388 1.065.259 2.196.666 3.393 1.22l-.456 6.243a7.35 7.35 0 0 0-1.568-1.005 11.32 11.32 0 0 0-1.54-.603 9.005 9.005 0 0 0-1.625-.322c-.723.126-1.34.478-1.853 1.058-.514.582-.77 1.327-.77 2.238 0 .857.185 1.603.556 2.237.37.634.836 1.233 1.397 1.795.56.563 1.173 1.126 1.839 1.688a14.383 14.383 0 0 1 1.868 1.916 10.827 10.827 0 0 1 1.482 2.465c.409.929.632 2.045.67 3.35"></path>
                                </g>
                            </g>
                        </g>
                    </svg>